<?xml version="1.0" standalone="no"?> <!DOCTYPE svg PUBLIC "-//W3C//DTD SVG 20010904//EN" "http://www.w3.org/TR/2001/REC-SVG-20010904/DTD/svg10.dtd"> <svg version="1.0" xmlns="http://www.w3.org/2000/svg" width="1056.000000pt" height="966.000000pt" viewBox="0 0 1056.000000 966.000000" preserveAspectRatio="xMidYMid meet"> <g transform="translate(0.000000,966.000000) scale(0.100000,-0.100000)" fill="#696633" stroke="none"> <path d="M8378 9383 l-1867 -3 -12 -22 c-9 -16 -13 -544 -17 -2083 -4 -1934 -4 -2062 12 -2078 20 -19 46 -21 96 -7 70 20 410 74 565 89 50 5 160 18 245 29 85 11 207 26 270 32 63 6 176 18 250 26 370 39 1605 69 1845 45 122 -13 481 -18 492 -8 4 5 8 40 8 79 0 90 -10 98 -119 98 -45 0 -596 2 -1224 3 l-1144 2 -20 25 c-21 25 -21 28 -16 1215 4 850 8 1197 16 1212 6 11 22 23 34 26 13 3 585 6 1272 6 859 -1 1252 3 1259 10 7 7 11 216 13 638 3 696 4 675 -59 671 -17 -2 -872 -4 -1899 -5z"/> <path d="M4096 9278 c-9 -18 -54 -132 -101 -253 -47 -121 -98 -251 -114 -290 -16 -38 -45 -110 -65 -160 -19 -49 -51 -131 -70 -181 -20 -50 -36 -95 -36 -98 0 -7 -34 -86 -70 -161 -10 -22 -44 -105 -75 -185 -31 -80 -70 -179 -87 -220 -16 -41 -68 -169 -115 -285 -46 -115 -90 -226 -97 -245 -15 -40 -104 -257 -166 -405 -23 -55 -50 -122 -60 -150 -10 -27 -28 -69 -39 -92 -12 -23 -21 -47 -21 -52 0 -6 -14 -41 -31 -78 -17 -38 -44 -103 -60 -146 -16 -42 -36 -91 -45 -108 -9 -18 -24 -55 -33 -83 -10 -28 -41 -107 -68 -176 -28 -69 -65 -161 -82 -205 -18 -44 -36 -91 -42 -105 -51 -121 -185 -459 -205 -515 -14 -38 -34 -90 -46 -115 -11 -25 -29 -67 -38 -95 -23 -63 -86 -220 -104 -260 -8 -16 -27 -61 -41 -100 -15 -38 -33 -83 -41 -100 -13 -29 -129 -334 -184 -485 -15 -41 -35 -93 -45 -115 -9 -22 -82 -200 -160 -395 -79 -195 -167 -409 -195 -475 -70 -163 -102 -253 -95 -265 9 -14 32 -2 125 64 82 59 126 88 420 281 74 48 179 118 233 154 54 36 105 71 115 76 33 20 559 366 609 401 58 41 79 77 138 234 71 186 78 206 98 249 10 25 26 63 34 85 7 23 27 70 43 106 16 36 61 146 100 245 102 256 223 562 271 685 55 142 121 304 221 535 16 39 42 104 58 145 130 349 154 400 191 400 30 0 64 -63 123 -233 31 -87 74 -197 96 -244 22 -47 40 -90 40 -96 0 -5 13 -37 29 -71 16 -34 41 -92 56 -131 15 -38 35 -88 45 -110 9 -22 36 -89 60 -150 24 -60 69 -173 101 -250 32 -77 65 -158 74 -180 9 -22 27 -73 40 -113 13 -41 31 -82 41 -93 18 -20 53 -25 70 -10 5 4 41 18 79 31 39 12 97 33 130 46 33 13 92 35 130 48 150 53 303 108 365 131 36 13 83 29 106 35 22 5 60 24 83 41 40 28 42 33 36 65 -6 34 -56 162 -170 434 -58 139 -133 328 -165 415 -23 63 -286 720 -305 760 -11 26 -160 392 -225 555 -12 30 -35 87 -50 125 -29 72 -77 194 -173 440 -62 157 -91 230 -146 360 -59 138 -81 193 -111 275 -16 41 -52 134 -80 205 -62 156 -97 246 -179 465 -90 239 -98 250 -125 188z"/> <path d="M8992 5213 c-11 -16 -41 -68 -67 -118 -26 -49 -61 -109 -76 -133 -16 -24 -29 -46 -29 -51 0 -4 -11 -22 -25 -41 -33 -45 -17 -54 67 -40 35 6 116 15 181 20 65 5 155 16 200 24 45 8 117 20 159 27 82 12 114 33 104 66 -6 17 -34 34 -316 180 -69 36 -134 72 -145 79 -27 19 -31 18 -53 -13z"/> <path d="M9754 5178 c-21 -29 -51 -71 -66 -93 -15 -22 -44 -62 -64 -88 -58 -80 -55 -81 169 -72 379 14 412 18 412 40 0 19 -13 29 -281 203 -53 34 -104 62 -114 62 -10 0 -35 -23 -56 -52z"/> <path d="M8218 5163 c-25 -30 -56 -92 -159 -326 -21 -48 -49 -101 -61 -117 -25 -35 -20 -44 25 -42 36 1 178 25 248 41 24 6 96 20 159 31 212 37 222 40 256 74 30 30 53 104 39 127 -9 13 -88 54 -230 116 -66 29 -145 67 -176 83 -66 35 -80 36 -101 13z"/> <path d="M7437 5045 c-25 -27 -73 -141 -110 -260 -27 -86 -69 -201 -92 -250 -28 -63 -25 -70 30 -69 28 1 93 15 145 32 52 17 131 40 175 51 44 11 113 31 152 45 40 14 81 26 91 26 10 0 35 17 56 39 32 32 41 52 56 120 18 81 18 82 -2 101 -32 29 -92 56 -263 116 -233 81 -213 77 -238 49z"/> <path d="M6670 4885 c-13 -16 -61 -174 -159 -525 -10 -36 -24 -78 -30 -93 -6 -16 -11 -40 -11 -54 0 -29 -5 -29 105 12 39 14 113 40 165 56 91 28 200 69 302 111 30 13 55 32 67 52 30 48 91 277 80 297 -10 20 -39 31 -229 89 -74 23 -155 48 -179 56 -57 18 -95 18 -111 -1z"/> <path d="M9955 4699 c-619 -51 -762 -68 -989 -115 -38 -8 -88 -14 -111 -14 -90 0 -571 -87 -617 -111 -9 -5 -85 -24 -170 -44 -199 -45 -391 -97 -502 -135 -50 -16 -97 -30 -107 -30 -9 0 -52 -12 -95 -26 -44 -14 -101 -32 -129 -39 -62 -17 -554 -196 -628 -229 -34 -15 -58 -32 -62 -45 -8 -27 17 -99 106 -307 38 -89 69 -165 69 -168 0 -9 142 -368 199 -506 27 -63 67 -164 90 -225 23 -60 55 -141 71 -180 28 -67 55 -136 106 -275 13 -36 41 -105 63 -155 22 -49 54 -128 71 -175 18 -47 46 -116 62 -155 40 -92 82 -201 118 -304 17 -46 34 -89 39 -95 10 -13 82 -201 112 -291 28 -86 51 -129 72 -133 16 -3 17 39 19 750 2 414 3 1152 3 1640 0 990 -6 911 71 928 22 5 562 10 1218 10 1038 0 1182 2 1203 15 23 15 23 18 23 201 0 109 -4 193 -10 205 -10 17 -21 19 -103 18 -51 -1 -137 -5 -192 -10z"/> <path d="M5942 4682 c-33 -5 -42 -30 -79 -212 -18 -91 -40 -190 -48 -220 -9 -30 -22 -93 -29 -140 -8 -47 -21 -111 -30 -143 -20 -73 -20 -77 3 -77 21 0 150 47 166 60 6 5 44 21 85 36 41 14 80 30 85 34 6 4 54 27 108 50 130 57 160 86 176 170 7 36 23 101 36 145 14 44 26 100 27 124 3 40 0 46 -28 62 -35 21 -180 60 -309 84 -49 9 -101 19 -115 23 -14 4 -35 6 -48 4z"/> <path d="M5222 4412 c-43 -4 -58 -31 -66 -117 -4 -38 -18 -135 -31 -215 -19 -115 -48 -342 -68 -525 -4 -37 33 -26 166 49 72 41 189 103 260 137 79 38 135 72 146 88 13 18 25 67 36 146 9 66 25 157 36 202 10 45 19 96 19 112 0 50 -41 66 -245 96 -224 32 -214 31 -253 27z"/> <path d="M4471 4077 c-9 -12 -17 -89 -27 -264 -8 -137 -19 -277 -25 -313 -6 -36 -14 -112 -19 -170 -5 -58 -12 -127 -16 -154 l-7 -49 32 6 c17 4 66 30 108 58 42 29 129 83 193 120 206 121 221 131 229 153 4 11 13 80 20 151 11 110 36 280 57 375 4 17 -1 34 -13 49 -23 28 -89 37 -338 47 -159 6 -182 5 -194 -9z"/> <path d="M6220 3796 c-59 -25 -128 -59 -490 -242 -129 -66 -263 -131 -297 -146 -82 -35 -86 -50 -38 -165 20 -48 65 -162 101 -253 35 -91 80 -201 98 -245 66 -159 197 -484 281 -700 47 -121 92 -233 99 -250 8 -16 23 -57 34 -90 11 -33 50 -132 86 -220 37 -88 92 -223 122 -300 31 -77 64 -159 75 -181 11 -23 28 -66 38 -95 23 -63 81 -210 116 -289 13 -30 35 -85 49 -123 63 -166 79 -203 97 -222 18 -19 36 -20 267 -25 136 -3 389 -3 562 0 290 5 315 6 318 23 3 17 -15 67 -104 287 -25 63 -80 198 -121 300 -41 102 -85 210 -97 240 -13 30 -29 73 -36 95 -6 22 -16 49 -21 60 -14 31 -87 211 -119 295 -16 41 -54 136 -85 210 -31 74 -72 173 -90 220 -18 47 -50 123 -70 170 -36 82 -48 113 -99 245 -13 33 -40 98 -61 145 -20 47 -54 130 -75 185 -21 55 -84 213 -140 350 -150 368 -173 427 -220 565 -57 167 -64 180 -98 180 -15 -1 -52 -11 -82 -24z"/> <path d="M3779 3704 c-11 -14 -15 -102 -19 -498 -3 -265 -2 -491 2 -504 7 -19 11 -21 27 -12 27 14 164 111 231 163 30 24 99 74 152 111 62 44 102 80 112 100 11 23 18 105 27 324 11 270 10 295 -5 310 -14 15 -49 17 -265 20 -224 3 -249 2 -262 -14z"/> <path d="M3325 3318 c-135 -7 -184 -13 -195 -24 -12 -12 -15 -42 -13 -157 2 -78 8 -187 14 -241 6 -55 16 -227 24 -384 7 -171 17 -288 23 -294 8 -8 27 3 67 38 69 60 262 211 331 259 28 19 63 52 76 73 l25 37 -5 334 c-4 309 -6 335 -23 352 -21 21 -31 22 -324 7z"/> <path d="M2840 2890 c-62 -11 -256 -39 -307 -46 -36 -4 -44 -10 -49 -31 -6 -24 9 -142 65 -513 11 -69 27 -201 36 -295 21 -207 36 -297 52 -302 6 -2 71 53 144 124 73 70 171 165 218 210 l86 82 -1 58 c0 48 -16 247 -49 626 -8 90 -15 97 -88 96 -34 -1 -82 -5 -107 -9z"/> <path d="M2299 2415 c-3 -2 -86 -20 -184 -40 -175 -35 -220 -51 -232 -80 -6 -18 5 -72 107 -510 10 -44 26 -125 35 -180 10 -55 28 -145 41 -200 13 -55 26 -124 30 -152 13 -100 17 -98 216 107 99 102 191 202 205 222 24 35 25 43 19 110 -8 80 -35 249 -42 260 -8 13 -33 180 -43 295 -6 63 -17 126 -26 143 -14 28 -20 30 -69 30 -29 0 -55 -2 -57 -5z"/> <path d="M1610 1853 c-196 -52 -267 -79 -274 -102 -3 -9 -2 -32 3 -51 19 -77 93 -339 116 -410 14 -41 34 -111 45 -155 83 -328 133 -499 151 -519 5 -6 17 -2 30 10 44 39 332 390 345 421 14 32 9 81 -16 168 -5 17 -18 80 -30 140 -12 61 -28 128 -35 150 -7 22 -23 99 -35 170 -12 72 -32 150 -44 175 -19 40 -25 45 -56 46 -19 1 -109 -18 -200 -43z"/> <path d="M1075 1281 c-93 -31 -187 -65 -207 -75 -62 -30 -65 -38 -38 -119 40 -117 130 -359 150 -402 11 -22 26 -65 34 -95 8 -30 28 -94 45 -141 16 -48 33 -103 36 -122 12 -65 30 -72 175 -72 l129 0 31 30 c41 39 150 201 150 224 0 9 -13 57 -29 106 -44 140 -105 346 -152 514 -49 174 -70 211 -122 210 -18 0 -108 -26 -202 -58z"/> <path d="M735 736 c-22 -12 -92 -44 -155 -70 -161 -66 -245 -108 -248 -127 -5 -29 105 -246 134 -266 25 -16 57 -18 286 -21 227 -3 259 -1 264 12 3 9 -15 73 -41 143 -26 71 -61 164 -77 208 -54 149 -80 168 -163 121z"/> </g> </svg>